<?xml version="1.0" encoding="iso-8859-1"?>
<!-- Generator: Adobe Illustrator 16.0.0, SVG Export Plug-In . SVG Version: 6.00 Build 0)  -->
<!DOCTYPE svg PUBLIC "-//W3C//DTD SVG 1.1//EN" "http://www.w3.org/Graphics/SVG/1.1/DTD/svg11.dtd">
<svg version="1.1" id="Capa_1" xmlns="http://www.w3.org/2000/svg" xmlns:xlink="http://www.w3.org/1999/xlink" x="0px" y="0px"
	 width="46.17px" height="46.17px" viewBox="0 0 46.17 46.17" style="enable-background:new 0 0 46.17 46.17;" xml:space="preserve"
	>
<g>
	<g>
		<path d="M9.787,5.615h10.839c0.536,0,1.017-0.34,1.216-0.837l1.714-4.292c0.043-0.107,0.03-0.233-0.035-0.329
			C23.456,0.061,23.348,0,23.232,0H9.787C9.064,0,8.501,0.586,8.501,1.31v2.967C8.502,5.001,9.064,5.615,9.787,5.615z"/>
		<path d="M15.264,16.296c3.486,0,6.36-2.647,6.752-6.035h1.229c0.135,0,0.259-0.059,0.316-0.182
			c0.058-0.123,0.039-0.248-0.049-0.352l-1.703-2.005c0-0.001-12.01,0.022-12.01,0.022c-0.673,0-1.238,0.486-1.303,1.156
			C8.475,9.109,8.465,9.309,8.465,9.524C8.465,13.279,11.508,16.296,15.264,16.296z"/>
		<path d="M25.646,41.427H11.62c-0.825,0-1.494-0.675-1.494-1.5s0.668-1.5,1.494-1.5h9.869c0.201,0,0.385-0.096,0.479-0.274
			c0.093-0.178,0.079-0.385-0.037-0.549c0,0-13.032-18.646-13.074-18.756l-0.652-0.007c-1.841-0.018-3.352,1.451-3.385,3.292
			L4.468,41.501c-0.016,0.842,0.306,1.653,0.894,2.257c0.587,0.604,1.391,0.945,2.232,0.952c-0.039,0.373,0.081,0.743,0.332,1.022
			c0.25,0.278,0.608,0.438,0.982,0.438h15.764c0.374,0,0.73-0.159,0.98-0.438c0.25-0.277,0.372-0.648,0.333-1.021L25.646,41.427z"/>
		<path d="M35.534,25.136c-0.738-0.062-1.471,0.173-2.036,0.653l-2.219,1.881l-7.854-7.819c-0.628-0.625-1.478-0.977-2.365-0.977
			h-8.593L24.64,36.268c0.063,0.092,0.183,0.129,0.288,0.09c0.104-0.039,0.171-0.145,0.159-0.256l-0.792-7.58l3.958,4.041
			c0.797,0.813,1.864,1.229,2.935,1.229c0.941,0,1.886-0.319,2.65-0.967l3.271-2.774c0.565-0.479,0.917-1.163,0.979-1.901
			c0.061-0.738-0.175-1.471-0.653-2.035C36.956,25.548,36.273,25.195,35.534,25.136z"/>
		<path d="M39.189,8.228h-5.92c-1.385,0-2.505,1.123-2.505,2.508v8.922c0,1.385,1.12,2.508,2.505,2.508h0.294
			c0.06,0.473,0.299,0.904,0.671,1.188c0.432,0.33,0.986,0.418,1.491,0.241c0,0,4.269-1.548,4.392-1.604
			c0.987-0.458,1.585-1.273,1.585-2.332v-8.922C41.701,9.351,40.574,8.228,39.189,8.228z M34.69,11.035
			c-0.675,0.238-1.119,0.907-1.119,1.659v7.535h-0.334c-0.285,0-0.537-0.25-0.537-0.535v-8.928c0-0.284,0.252-0.506,0.537-0.506
			h3.638L34.69,11.035z"/>
	</g>
</g>
<g>
</g>
<g>
</g>
<g>
</g>
<g>
</g>
<g>
</g>
<g>
</g>
<g>
</g>
<g>
</g>
<g>
</g>
<g>
</g>
<g>
</g>
<g>
</g>
<g>
</g>
<g>
</g>
<g>
</g>
</svg>
